# Blender v2.93.5 OBJ File: ''
# www.blender.org
mtllib gutter.mtl
o Cube_Cube.004
v -0.200000 -10.000000 0.200000
v -0.200000 10.000000 0.200000
v -0.200000 -10.000000 -0.200000
v -0.200000 10.000000 -0.200000
v 0.200000 -10.000000 0.200000
v 0.200000 10.000000 0.200000
v 0.200000 -10.000000 -0.200000
v 0.200000 10.000000 -0.200000
v -0.241262 -0.163325 -0.197599
v 0.241262 -0.163325 -0.197599
v -0.241262 0.163325 -0.197599
v 0.241262 0.163325 -0.197599
v 0.241262 0.163325 0.220359
v -0.241262 0.163325 0.220359
v 0.241262 -0.163325 0.220359
v -0.241262 -0.163325 0.220359
v -0.241262 -0.163325 -0.197599
v -0.241262 0.163325 -0.197599
v 0.595217 -0.163325 -0.197599
v 0.595217 0.163325 -0.197599
v -0.595217 -0.163325 -0.197599
v -0.595217 0.163325 -0.197599
v -0.241262 -5.941722 -0.197599
v 0.241262 -5.941722 -0.197599
v -0.241262 -5.615071 -0.197599
v 0.241262 -5.615071 -0.197599
v 0.241262 -5.615071 0.220359
v -0.241262 -5.615071 0.220359
v 0.241262 -5.941722 0.220359
v -0.241262 -5.941722 0.220359
v -0.241262 -5.941722 -0.197599
v -0.241262 -5.615071 -0.197599
v 0.595217 -5.941722 -0.197599
v 0.595217 -5.615071 -0.197599
v -0.595217 -5.941722 -0.197599
v -0.595217 -5.615071 -0.197599
v -0.241262 5.483046 -0.197599
v 0.241262 5.483046 -0.197599
v -0.241262 5.809696 -0.197599
v 0.241262 5.809696 -0.197599
v 0.241262 5.809696 0.220359
v -0.241262 5.809696 0.220359
v 0.241262 5.483046 0.220359
v -0.241262 5.483046 0.220359
v -0.241262 5.483046 -0.197599
v -0.241262 5.809696 -0.197599
v 0.595217 5.483046 -0.197599
v 0.595217 5.809696 -0.197599
v -0.595217 5.483046 -0.197599
v -0.595217 5.809696 -0.197599
vt 0.375000 0.000000
vt 0.625000 0.000000
vt 0.625000 0.250000
vt 0.375000 0.250000
vt 0.625000 0.500000
vt 0.375000 0.500000
vt 0.625000 0.750000
vt 0.375000 0.750000
vt 0.625000 1.000000
vt 0.375000 1.000000
vt 0.125000 0.500000
vt 0.125000 0.750000
vt 0.875000 0.500000
vt 0.875000 0.750000
vt 1.000000 1.000000
vt 1.000000 0.000000
vt 1.000000 0.000000
vt 1.000000 1.000000
vt 0.000000 0.000000
vt 0.000000 1.000000
vt 0.000000 1.000000
vt 0.000000 0.000000
vt 0.000000 1.000000
vt 0.000000 0.000000
vt 0.000000 1.000000
vt 0.000000 0.000000
vt 1.000000 0.000000
vt 1.000000 1.000000
vt 1.000000 1.000000
vt 1.000000 0.000000
vt 1.000000 0.000000
vt 1.000000 1.000000
vt 0.000000 0.000000
vt 0.000000 1.000000
vt 0.000000 1.000000
vt 0.000000 0.000000
vt 0.000000 1.000000
vt 0.000000 0.000000
vt 0.000000 1.000000
vt 0.000000 0.000000
vt 1.000000 0.000000
vt 1.000000 1.000000
vt 1.000000 1.000000
vt 1.000000 0.000000
vt 1.000000 0.000000
vt 1.000000 1.000000
vt 0.000000 0.000000
vt 0.000000 1.000000
vt 0.000000 1.000000
vt 0.000000 0.000000
vt 0.000000 1.000000
vt 0.000000 0.000000
vt 0.000000 1.000000
vt 0.000000 0.000000
vt 1.000000 0.000000
vt 1.000000 1.000000
vn -1.0000 0.0000 0.0000
vn 0.0000 0.0000 -1.0000
vn 1.0000 0.0000 0.0000
vn 0.0000 0.0000 1.0000
vn 0.0000 -1.0000 0.0000
vn 0.0000 1.0000 0.0000
usemtl None
s off
f 1/1/1 2/2/1 4/3/1 3/4/1
f 3/4/2 4/3/2 8/5/2 7/6/2
f 7/6/3 8/5/3 6/7/3 5/8/3
f 5/8/4 6/7/4 2/9/4 1/10/4
f 3/11/5 7/6/5 5/8/5 1/12/5
f 8/5/6 4/13/6 2/14/6 6/7/6
f 13/15/3 15/16/3 10/17/3 12/18/3
f 16/19/1 14/20/1 11/21/1 9/22/1
f 16/19/4 15/16/4 13/15/4 14/20/4
f 9/22/4 11/21/4 18/23/4 17/24/4
f 17/24/4 18/23/4 22/25/4 21/26/4
f 12/18/4 10/17/4 19/27/4 20/28/4
f 27/29/3 29/30/3 24/31/3 26/32/3
f 30/33/1 28/34/1 25/35/1 23/36/1
f 30/33/4 29/30/4 27/29/4 28/34/4
f 23/36/4 25/35/4 32/37/4 31/38/4
f 31/38/4 32/37/4 36/39/4 35/40/4
f 26/32/4 24/31/4 33/41/4 34/42/4
f 41/43/3 43/44/3 38/45/3 40/46/3
f 44/47/1 42/48/1 39/49/1 37/50/1
f 44/47/4 43/44/4 41/43/4 42/48/4
f 37/50/4 39/49/4 46/51/4 45/52/4
f 45/52/4 46/51/4 50/53/4 49/54/4
f 40/46/4 38/45/4 47/55/4 48/56/4
