# Blender v2.93.5 OBJ File: ''
# www.blender.org
mtllib snowbank2.mtl
o Icosphere
v -0.818778 0.074728 1.458250
v -1.690496 0.093085 -0.016405
v -0.636041 0.107242 -1.611925
v 0.486332 0.978632 1.527947
v 0.463401 0.893767 -1.613486
v -0.439774 0.007032 0.827126
v 0.569698 0.021068 0.530656
v 0.379841 0.165566 1.383609
v 1.438833 -0.003502 0.015489
v 0.591380 -0.009873 -0.779553
v -1.107053 0.039375 -0.045542
v -1.710353 0.079901 0.473671
v -0.439357 0.070292 -0.941341
v -1.433084 0.054947 -0.944588
v 1.651602 0.542365 0.561948
v -1.861541 0.394879 0.518445
v -1.010558 0.335489 -1.631989
v -1.805141 0.485990 -0.630587
v 1.085709 0.458769 -1.518523
v -0.524167 0.599054 -1.815116
v 1.239389 0.993003 0.898521
v -0.752346 0.730399 -1.550476
v 1.246887 1.038780 -0.911222
v 0.397020 1.290876 1.249624
v 0.918707 1.524164 -0.052552
v -0.853816 1.437803 0.539365
v -0.842040 1.331008 -0.578759
v 0.271816 1.435742 -0.881533
v 1.263182 0.081080 0.888729
v 1.320224 0.117572 0.540551
v 1.206848 0.136762 -0.995429
v -0.388561 -0.083813 0.308028
v -0.312047 -0.066135 -0.310374
v -1.095669 0.110546 -1.333467
v 0.878771 0.188820 -1.304841
v 1.487243 0.320782 0.864312
v 1.650116 0.723294 -0.397856
v -0.189267 0.275294 1.739390
v 0.745630 0.613391 1.588027
v -1.911012 0.207815 0.290790
v -1.456867 0.832581 -0.955497
v -1.062057 0.970877 1.251904
v 0.015449 0.825355 -1.715418
v 1.498020 1.024431 -0.427166
v 0.492908 1.602576 -0.330032
v -1.389347 0.885158 0.908033
v -1.159551 1.233726 -0.831906
v -0.558896 0.066606 1.252354
v 0.059643 -0.083802 0.049342
v -1.737461 0.141377 -0.513675
v -0.230157 0.224013 -1.750713
v 1.752446 0.391194 0.053178
v 1.627466 0.351688 -0.743693
v -0.027090 0.575644 1.788006
v 1.024713 0.444115 1.429333
v -1.697157 0.730884 0.543675
v -0.881740 0.242391 1.610517
v -1.007510 0.896425 -1.395548
v -1.907498 0.232511 -0.249930
v 0.503499 0.469545 -1.791234
v -0.297320 0.849094 1.669942
v -1.545156 0.930624 0.535469
v 0.793854 1.079172 -1.328355
v 0.177528 1.519925 0.367789
v -0.312781 1.487143 0.759336
v -0.617194 1.528784 -0.137625
v 0.162715 1.680501 -0.533183
v 1.216531 1.171323 -0.431780
v 0.928037 1.343542 -0.702486
v -0.294402 1.439684 -0.656736
v 0.018928 1.197650 -1.372235
v -0.420268 1.352844 -1.103222
v -0.867577 1.576031 -0.030712
v -1.563958 1.067382 -0.108187
v -0.664845 1.307451 1.054179
v -0.133627 1.273209 1.221349
v 0.412261 1.538746 0.329625
v 0.883647 1.240113 0.866476
v 1.469926 0.975492 0.422795
v 1.535843 0.699553 -0.878485
v 1.376232 0.464360 -1.123218
v 1.111383 0.753544 -1.282514
v -0.650855 0.341399 -1.769028
v -1.679435 0.807814 -0.441585
v -1.870167 0.527428 -0.034621
v -0.643256 0.455176 1.675174
v 1.179087 0.847715 1.188450
v 1.414653 0.501167 1.026861
v 1.605575 0.765468 0.682319
v 0.644289 0.351822 -1.599292
v -1.567155 0.519425 -1.085413
v -1.658866 0.292336 -0.940990
v -1.526850 0.577723 1.068941
v -1.708789 0.209914 0.702867
v -1.269336 0.275480 1.261492
v 0.489891 0.445129 1.636595
v 0.229734 0.250551 1.711483
v 0.641826 0.165055 1.505002
v 1.511460 0.227020 -0.490408
v -0.080037 -0.008031 -0.687828
v 0.001731 0.025717 -1.294622
v -0.878840 -0.007019 -1.148948
v -0.876723 0.085992 -0.536374
v -1.473249 -0.035910 -0.415017
v -1.402709 0.013432 0.400534
v -0.731514 0.062818 0.329767
v -1.004417 0.014154 0.750566
v 1.109825 -0.014754 -0.296820
v 0.998164 0.045208 0.203680
v 0.011371 0.008676 1.186722
v -0.015595 0.035956 0.528219
v 0.630587 0.061500 1.013418
v 1.601978 0.130848 0.490891
v -1.295726 0.996328 -0.600027
v -1.132171 1.295212 -0.004831
v -0.030552 1.653679 -0.028218
v -1.151846 0.600861 1.456857
v 0.369440 0.149456 -1.623158
v 1.649156 0.925293 0.036471
v -0.252581 -0.021609 -1.438615
v 0.378293 0.039359 -0.046577
v -0.284482 0.189953 1.352750
vt -0.833934 -0.774273
vt -0.833934 -0.517551
vt -0.931165 -0.605862
vt -0.736703 -0.605862
vt -0.639473 -0.437451
vt -0.250549 -0.437451
vt -0.250549 -0.112019
vt -0.441432 -0.106828
vt -0.127264 -0.309410
vt -0.056087 -0.100629
vt 2.277454 -0.507236
vt 2.336019 -0.605862
vt 2.471915 -0.437451
vt 1.499607 -0.434360
vt 1.596838 -0.605862
vt 1.694068 -0.437451
vt 1.305145 -0.437451
vt 1.449353 -0.677878
vt 0.776063 -0.680215
vt 0.721759 -0.516362
vt 0.624529 -0.605862
vt 0.916221 -0.437451
vt -0.363249 0.076712
vt -0.448590 -0.106828
vt -0.250549 0.011644
vt -0.250549 0.236191
vt -0.079033 0.211856
vt -0.931165 0.067781
vt -1.075929 0.017976
vt -0.833934 -0.100629
vt -0.993781 0.318145
vt 2.081430 -0.101112
vt 1.985761 0.067781
vt 1.931284 -0.174681
vt 2.082993 0.236191
vt 2.180223 0.067781
vt 1.321199 -0.072822
vt 1.249875 0.113651
vt 1.104938 -0.110580
vt 0.527298 -0.097152
vt 0.511987 0.209671
vt 0.328624 -0.107925
vt 0.624529 0.067781
vt 0.721760 -0.008373
vt -0.615207 0.181011
vt -0.445011 0.261416
vt -1.229190 0.308698
vt -1.424140 0.282838
vt -1.298909 0.080010
vt 1.888530 0.276347
vt 1.811185 0.079262
vt 1.694069 0.236191
vt 1.110683 0.145374
vt 0.968088 0.009799
vt 1.093456 0.337594
vt 0.332836 0.281292
vt 0.192634 0.142211
vt -0.519712 0.754430
vt -0.547369 0.412873
vt -0.445011 0.573011
vt -1.417322 0.909832
vt -1.417323 0.576067
vt -1.320091 0.741422
vt 1.503664 0.566451
vt 1.694068 0.685285
vt 1.596838 0.741422
vt 1.694068 0.909832
vt 1.869031 0.606786
vt 0.916221 0.479480
vt 0.818991 0.741422
vt 0.721759 0.573011
vt 1.177805 0.456752
vt 0.940978 0.699578
vt 0.916221 0.909832
vt 0.199540 0.720599
vt 0.138374 0.573011
vt 0.332836 0.573011
vt -0.051035 0.569391
vt 0.138374 0.909832
vt 0.430067 1.078244
vt 0.317670 1.000658
vt 0.527298 0.909832
vt 0.332836 1.246655
vt 0.336428 0.795485
vt 0.532855 0.635842
vt 1.110683 0.966797
vt 1.013452 1.078244
vt 1.207914 1.078244
vt 1.305145 0.909832
vt 1.110683 1.246655
vt 1.120956 0.791627
vt 1.305824 0.485412
vt 1.402376 0.741422
vt 2.082992 0.909832
vt 1.858612 1.039380
vt 1.888530 0.909832
vt 1.985761 1.078244
vt 1.888530 1.246655
vt 1.888530 0.797559
vt 2.083283 0.588267
vt 2.272265 0.581997
vt -0.944775 0.762489
vt -1.222858 1.244280
vt -1.222794 0.903108
vt -1.114904 0.482577
vt -1.125628 0.741422
vt -0.833934 0.573011
vt -0.445011 1.005456
vt -0.542242 1.078244
vt -0.717296 0.759142
vt -0.347780 1.078244
vt -0.250549 0.909832
vt -0.445011 1.246655
vt -0.252456 0.576739
vt -0.061139 0.569391
vt 0.067686 0.419926
vt 0.235605 0.404601
vt 0.446249 0.413944
vt 0.723834 0.251009
vt 1.737062 0.498545
vt 2.087881 0.461687
vt -1.606597 0.581997
vt -0.755931 0.393500
vt -0.316026 0.422934
vt 1.499607 0.291341
vt 1.499607 -0.100629
vt 1.557127 0.090708
vt 1.694068 -0.043094
vt 2.277454 0.312876
vt 2.463845 0.250169
vt 2.400652 0.052789
vt 2.589944 -0.106396
vt 2.569147 0.067781
vt -0.833934 0.168678
vt -0.736894 0.068111
vt 0.090701 -0.008483
vt 0.550883 -0.396599
vt 0.337048 -0.107925
vt 0.809585 -0.274470
vt 0.916221 -0.212903
vt 1.336072 -0.230759
vt 1.116428 -0.110580
vt 1.683171 -0.219195
vt 2.082992 -0.437451
vt 2.158542 -0.256522
vt 2.324158 -0.298212
vt 0.047264 -0.265506
vt 0.138374 -0.437451
vt -0.056087 -0.549725
vt -0.088592 -0.605862
vt -0.914718 -0.278536
vt -1.125627 -0.269040
vt -1.028396 -0.437451
vt -1.222858 -0.100629
vt -1.028396 -0.212903
vt -0.693817 -0.244279
vt -1.125627 1.078244
vt 1.845776 -0.174681
vt 2.569147 -0.269040
vn -0.0865 -0.9927 -0.0837
vn 0.0592 -0.9930 0.1026
vn -0.0200 -0.9962 0.0839
vn 0.0195 -0.9962 0.0842
vn 0.0518 -0.9974 0.0491
vn 0.1888 -0.9652 0.1809
vn 0.4567 -0.8494 0.2643
vn 0.0140 -0.9954 0.0948
vn 0.3998 -0.9158 -0.0370
vn -0.1773 -0.9746 0.1362
vn -0.0223 -0.9979 0.0603
vn -0.0177 -0.9991 -0.0373
vn -0.0158 -0.9998 0.0052
vn -0.0543 -0.9980 -0.0329
vn -0.0463 -0.9924 -0.1141
vn 0.7849 -0.4021 0.4714
vn 0.6477 -0.6987 0.3038
vn 0.9563 -0.0302 0.2907
vn 0.9813 -0.1922 -0.0080
vn 0.2459 -0.6329 0.7341
vn -0.0544 -0.5882 0.8068
vn 0.0752 -0.8930 0.4437
vn 0.0394 0.1371 0.9898
vn -0.5157 -0.8286 0.2178
vn -0.8982 -0.4194 0.1314
vn -0.3596 -0.9331 -0.0023
vn -0.9427 0.0507 0.3297
vn -0.7219 -0.4967 0.4819
vn -0.4461 -0.7364 -0.5086
vn -0.5218 -0.1621 -0.8375
vn -0.1723 -0.8157 -0.5521
vn 0.2919 -0.8396 -0.4580
vn 0.5820 -0.1093 -0.8058
vn 0.4277 -0.8264 -0.3662
vn 0.3842 -0.6374 -0.6679
vn 0.2095 -0.7832 -0.5853
vn 0.5941 -0.1830 0.7833
vn 0.7893 0.0144 0.6138
vn -0.2714 0.1358 0.9528
vn -0.5521 0.2394 0.7986
vn -0.3962 -0.3706 0.8401
vn -0.9427 0.3336 -0.0075
vn -0.9101 -0.3916 -0.1355
vn -0.9376 0.1567 -0.3103
vn -0.2915 -0.1881 -0.9379
vn 0.0370 -0.5469 -0.8363
vn -0.2837 0.3236 -0.9026
vn 0.7697 -0.1073 -0.6293
vn 0.8627 -0.3891 -0.3229
vn 0.4299 0.8341 0.3456
vn 0.6485 0.4703 0.5985
vn 0.6136 0.6784 0.4040
vn -0.3798 0.8985 0.2200
vn -0.4875 0.6312 0.6033
vn -0.2235 0.8341 0.5042
vn -0.7086 0.5909 -0.3855
vn -0.6234 0.7699 -0.1364
vn -0.5619 0.8204 -0.1055
vn -0.3487 0.9201 -0.1785
vn -0.6685 0.7402 -0.0718
vn -0.0114 0.5398 -0.8417
vn 0.3845 0.6644 -0.6408
vn 0.2123 0.6140 -0.7602
vn -0.2874 0.5258 -0.8006
vn -0.0162 0.7888 -0.6144
vn 0.0822 0.8851 -0.4581
vn 0.5423 0.8233 -0.1674
vn 0.6996 0.6842 -0.2057
vn 0.6337 0.6414 -0.4324
vn 0.8634 0.4941 0.1020
vn 0.4209 0.9066 -0.0286
vn 0.0011 0.9561 -0.2930
vn 0.2666 0.9574 -0.1105
vn -0.0447 0.9966 0.0696
vn 0.4384 0.8633 -0.2498
vn -0.1917 0.9406 -0.2800
vn -0.0839 0.9861 -0.1431
vn -0.1028 0.8945 -0.4351
vn -0.4026 0.5563 -0.7269
vn -0.2944 0.9546 -0.0448
vn -0.0753 0.9493 0.3052
vn -0.5896 0.8074 -0.0211
vn -0.6769 0.6922 0.2505
vn -0.6454 0.6417 0.4143
vn 0.1862 0.8336 0.5201
vn -0.1686 0.5132 0.8415
vn -0.2238 0.8035 0.5517
vn 0.2574 0.5501 0.7944
vn 0.0813 0.9764 0.1997
vn 0.1371 0.9719 0.1912
vn 0.7189 0.6659 0.1992
vn 0.9372 0.2812 -0.2063
vn 0.8077 0.3519 -0.4730
vn 0.6228 0.4352 -0.6501
vn 0.3181 -0.0858 -0.9442
vn -0.7646 0.6025 -0.2286
vn -0.8279 0.4986 0.2569
vn 0.4048 0.1135 0.9073
vn 0.8595 0.3841 0.3372
vn -0.7643 0.1491 -0.6273
vn -0.3919 -0.8594 -0.3284
vn -0.7981 -0.3135 -0.5145
vn -0.7201 -0.6503 -0.2418
vn -0.7815 0.1964 0.5921
vn -0.6463 -0.4548 0.6127
vn -0.1614 -0.8860 0.4346
vn 0.2877 -0.2903 0.9126
vn 0.1020 -0.7186 0.6879
vn 0.5782 -0.8016 -0.1516
vn 0.0912 -0.9891 -0.1154
vn 0.0711 -0.9819 -0.1756
vn 0.0703 -0.9658 -0.2494
vn -0.0202 -0.9945 -0.1028
vn -0.1819 -0.9831 -0.0218
vn -0.0994 -0.9947 0.0252
vn -0.0474 -0.9983 0.0334
vn 0.1286 -0.9892 -0.0696
vn 0.2214 -0.9745 0.0366
vn 0.0228 -0.9676 0.2515
vn 0.1141 -0.9493 0.2928
vn -0.0254 -0.8982 0.4388
vn 0.0509 -0.9879 0.1461
usemtl Material.001
s 1
f 33/1/1 111/2/2 32/3/3
f 111/2/2 49/4/4 7/5/5
f 7/6/5 30/7/6 29/8/7
f 30/7/6 109/9/8 9/10/9
f 106/11/10 32/12/3 6/13/11
f 103/14/12 32/15/3 11/16/13
f 13/17/14 33/18/1 103/14/12
f 33/19/1 100/20/15 49/21/4
f 13/22/14 100/20/15 33/19/1
f 30/7/6 36/23/16 29/24/7
f 9/10/9 113/25/17 30/7/6
f 15/26/18 113/25/17 52/27/19
f 97/28/20 38/29/21 8/30/22
f 54/31/23 38/29/21 97/28/20
f 12/32/24 40/33/25 2/34/26
f 16/35/27 12/32/24 94/36/28
f 34/37/29 17/38/30 3/39/31
f 35/40/32 19/41/33 31/42/34
f 90/43/35 35/40/32 118/44/36
f 19/41/33 35/40/32 90/43/35
f 29/24/7 36/23/16 55/45/37
f 88/46/38 36/23/16 15/26/18
f 86/47/39 38/29/21 54/31/23
f 117/48/40 57/49/41 86/47/39
f 85/50/42 40/33/25 16/35/27
f 59/51/43 85/50/42 18/52/44
f 3/39/31 83/53/45 51/54/46
f 51/54/46 83/53/45 20/55/47
f 31/42/34 81/56/48 53/57/49
f 78/58/50 87/59/51 21/60/52
f 26/61/53 42/62/54 75/63/55
f 41/64/56 114/65/57 47/66/58
f 27/67/59 114/65/57 74/68/60
f 43/69/61 63/70/62 5/71/63
f 22/72/64 71/73/65 43/69/61
f 63/70/62 71/73/65 28/74/66
f 68/75/67 44/76/68 23/77/69
f 119/78/70 68/75/67 25/79/71
f 67/80/72 45/81/73 28/82/66
f 116/83/74 45/81/73 67/80/72
f 68/75/67 45/81/73 25/79/71
f 23/77/69 69/84/75 68/75/67
f 45/81/73 69/84/75 28/82/66
f 63/85/62 69/84/75 23/77/69
f 28/74/66 70/86/76 67/87/72
f 66/88/77 70/86/76 27/89/59
f 116/90/74 70/86/76 66/88/77
f 71/73/65 70/86/76 28/74/66
f 22/72/64 72/91/78 71/73/65
f 70/86/76 72/91/78 27/89/59
f 58/92/79 72/91/78 22/72/64
f 72/91/78 47/93/58 27/89/59
f 26/94/53 66/95/77 73/96/80
f 66/95/77 65/97/81 116/98/74
f 27/67/59 115/99/82 73/96/80
f 26/94/53 115/99/82 62/100/83
f 26/94/53 62/100/83 46/101/84
f 24/102/85 116/103/74 65/104/81
f 75/63/55 65/104/81 26/61/53
f 61/105/86 65/104/81 75/63/55
f 65/104/81 76/106/87 24/102/85
f 4/107/88 24/102/85 61/105/86
f 77/108/89 64/109/90 24/110/85
f 45/111/73 77/108/89 25/112/71
f 64/109/90 45/111/73 116/113/74
f 78/58/50 77/108/89 24/110/85
f 25/112/71 78/58/50 79/114/91
f 79/114/91 119/115/70 25/112/71
f 23/77/69 37/116/92 80/117/93
f 37/116/92 44/76/68 119/78/70
f 81/56/48 80/117/93 53/57/49
f 23/77/69 81/56/48 82/118/94
f 5/71/63 82/118/94 60/119/95
f 82/118/94 63/85/62 23/77/69
f 20/55/47 43/69/61 60/119/95
f 43/69/61 20/55/47 22/72/64
f 60/119/95 43/69/61 5/71/63
f 22/72/64 83/53/45 17/38/30
f 17/38/30 58/92/79 22/72/64
f 85/50/42 84/120/96 18/52/44
f 74/68/60 85/50/42 56/121/97
f 62/100/83 56/121/97 46/101/84
f 56/121/97 62/100/83 74/68/60
f 42/62/54 86/47/39 61/105/86
f 117/48/40 42/62/54 46/122/84
f 61/105/86 86/47/39 54/31/23
f 61/105/86 54/31/23 4/107/88
f 55/45/37 87/59/51 39/123/98
f 88/46/38 87/59/51 55/45/37
f 21/60/52 88/46/38 89/124/99
f 79/114/91 52/27/19 119/78/70
f 89/124/99 79/114/91 21/60/52
f 90/43/35 60/119/95 19/41/33
f 60/119/95 51/54/46 20/55/47
f 91/125/100 58/92/79 17/38/30
f 34/37/29 91/125/100 17/38/30
f 14/126/101 92/127/102 34/37/29
f 91/125/100 92/127/102 18/52/44
f 50/128/103 92/127/102 14/126/101
f 59/51/43 50/128/103 2/34/26
f 18/52/44 50/128/103 59/51/43
f 93/129/104 56/121/97 16/35/27
f 46/101/84 93/129/104 117/130/40
f 94/36/28 93/129/104 16/35/27
f 12/32/24 95/131/105 94/36/28
f 93/129/104 95/131/105 117/130/40
f 1/132/106 95/131/105 12/32/24
f 117/130/40 95/131/105 57/133/41
f 39/123/98 96/134/107 55/45/37
f 97/28/20 96/134/107 54/31/23
f 8/30/22 96/134/107 97/28/20
f 55/45/37 96/134/107 98/135/108
f 55/45/37 98/135/108 29/24/7
f 37/116/92 52/27/19 53/57/49
f 52/27/19 99/136/109 53/57/49
f 10/137/110 35/40/32 31/138/34
f 35/40/32 10/137/110 118/44/36
f 101/139/111 100/20/15 13/22/14
f 13/22/14 120/140/112 101/139/111
f 101/139/111 51/54/46 118/44/36
f 13/17/14 102/141/113 3/142/31
f 34/37/29 102/141/113 14/126/101
f 3/39/31 102/141/113 34/37/29
f 103/14/12 102/141/113 13/17/14
f 104/143/114 103/14/12 11/16/13
f 14/126/101 103/14/12 104/143/114
f 104/143/114 50/128/103 14/126/101
f 11/144/13 105/145/115 2/34/26
f 2/34/26 105/145/115 12/32/24
f 106/11/10 105/145/115 11/144/13
f 107/146/116 106/11/10 6/13/11
f 6/13/11 1/132/106 107/146/116
f 107/146/116 1/132/106 12/32/24
f 108/147/117 99/136/109 9/10/9
f 31/42/34 108/147/117 10/148/110
f 9/10/9 109/9/8 108/147/117
f 108/147/117 109/9/8 10/148/110
f 7/6/5 121/149/118 109/9/8
f 10/148/110 121/149/118 49/150/4
f 110/151/119 48/152/120 6/153/11
f 38/29/21 110/151/119 8/30/22
f 1/154/106 122/155/121 38/29/21
f 112/156/122 111/2/2 7/5/5
f 8/30/22 110/151/119 112/156/122
f 8/30/22 112/156/122 98/135/108
f 33/1/1 49/4/4 111/2/2
f 6/153/11 32/3/3 111/2/2
f 7/6/5 109/9/8 30/7/6
f 11/144/13 32/12/3 106/11/10
f 103/14/12 33/18/1 32/15/3
f 10/137/110 49/21/4 100/20/15
f 30/7/6 113/25/17 36/23/16
f 9/10/9 52/27/19 113/25/17
f 15/26/18 36/23/16 113/25/17
f 16/35/27 40/33/25 12/32/24
f 55/45/37 36/23/16 88/46/38
f 1/154/106 38/29/21 57/49/41
f 86/47/39 57/49/41 38/29/21
f 2/34/26 40/33/25 59/51/43
f 85/50/42 59/51/43 40/33/25
f 3/39/31 17/38/30 83/53/45
f 31/42/34 19/41/33 81/56/48
f 4/107/88 87/59/51 24/110/85
f 78/58/50 24/110/85 87/59/51
f 61/105/86 75/63/55 42/62/54
f 26/61/53 46/122/84 42/62/54
f 41/64/56 84/120/96 114/65/57
f 74/68/60 114/65/57 84/120/96
f 27/67/59 47/66/58 114/65/57
f 43/69/61 71/73/65 63/70/62
f 119/78/70 44/76/68 68/75/67
f 68/75/67 69/84/75 45/81/73
f 28/82/66 69/84/75 63/85/62
f 116/90/74 67/87/72 70/86/76
f 71/73/65 72/91/78 70/86/76
f 41/64/56 47/93/58 58/92/79
f 72/91/78 58/92/79 47/93/58
f 27/67/59 73/96/80 66/95/77
f 26/94/53 65/97/81 66/95/77
f 27/67/59 74/68/60 115/99/82
f 74/68/60 62/100/83 115/99/82
f 26/94/53 73/96/80 115/99/82
f 24/102/85 64/157/90 116/103/74
f 61/105/86 76/106/87 65/104/81
f 61/105/86 24/102/85 76/106/87
f 64/109/90 77/108/89 45/111/73
f 21/60/52 79/114/91 78/58/50
f 25/112/71 77/108/89 78/58/50
f 53/57/49 80/117/93 37/116/92
f 23/77/69 44/76/68 37/116/92
f 19/41/33 82/118/94 81/56/48
f 23/77/69 80/117/93 81/56/48
f 19/41/33 60/119/95 82/118/94
f 5/71/63 63/85/62 82/118/94
f 22/72/64 20/55/47 83/53/45
f 18/52/44 84/120/96 41/64/56
f 16/35/27 56/121/97 85/50/42
f 74/68/60 84/120/96 85/50/42
f 42/62/54 117/48/40 86/47/39
f 4/107/88 39/123/98 87/59/51
f 15/26/18 89/124/99 88/46/38
f 21/60/52 87/59/51 88/46/38
f 15/26/18 52/27/19 89/124/99
f 79/114/91 89/124/99 52/27/19
f 90/43/35 118/44/36 60/119/95
f 60/119/95 118/44/36 51/54/46
f 18/52/44 41/64/56 91/125/100
f 41/64/56 58/92/79 91/125/100
f 34/37/29 92/127/102 91/125/100
f 18/52/44 92/127/102 50/128/103
f 46/101/84 56/121/97 93/129/104
f 94/36/28 95/131/105 93/129/104
f 57/133/41 95/131/105 1/132/106
f 96/134/107 39/123/98 54/31/23
f 4/107/88 54/31/23 39/123/98
f 8/30/22 98/135/108 96/134/107
f 37/116/92 119/78/70 52/27/19
f 9/10/9 99/136/109 52/27/19
f 31/42/34 53/57/49 99/136/109
f 100/20/15 101/139/111 10/137/110
f 118/44/36 10/137/110 101/139/111
f 13/22/14 3/39/31 120/140/112
f 3/39/31 51/54/46 120/140/112
f 101/139/111 120/140/112 51/54/46
f 14/126/101 102/141/113 103/14/12
f 11/16/13 2/158/26 104/143/114
f 2/34/26 50/128/103 104/143/114
f 106/11/10 107/146/116 105/145/115
f 12/32/24 105/145/115 107/146/116
f 6/13/11 48/159/120 1/132/106
f 31/42/34 99/136/109 108/147/117
f 7/6/5 49/150/4 121/149/118
f 10/148/110 109/9/8 121/149/118
f 110/151/119 122/155/121 48/152/120
f 38/29/21 122/155/121 110/151/119
f 1/154/106 48/152/120 122/155/121
f 6/153/11 111/2/2 110/151/119
f 112/156/122 110/151/119 111/2/2
f 7/5/5 29/24/7 112/156/122
f 29/24/7 98/135/108 112/156/122
